<svg width="270" height="89" viewBox="0 0 270 89" fill="none" xmlns="http://www.w3.org/2000/svg">
<ellipse cx="265.161" cy="84.5" rx="4.8392" ry="4.5" transform="rotate(180 265.161 84.5)" fill="white"/>
<path d="M246.643 84.5C246.643 82.0147 248.81 80 251.482 80C254.155 80 256.322 82.0147 256.322 84.5C256.322 86.9853 254.155 89 251.482 89C248.81 89 246.643 86.9853 246.643 84.5Z" fill="white"/>
<ellipse cx="237.804" cy="84.5" rx="4.8392" ry="4.5" transform="rotate(180 237.804 84.5)" fill="white"/>
<ellipse cx="224.126" cy="84.5" rx="4.8392" ry="4.5" transform="rotate(180 224.126 84.5)" fill="white"/>
<ellipse cx="210.447" cy="84.5" rx="4.8392" ry="4.5" transform="rotate(180 210.447 84.5)" fill="white"/>
<ellipse cx="196.769" cy="84.5" rx="4.8392" ry="4.5" transform="rotate(180 196.769 84.5)" fill="white"/>
<ellipse cx="183.09" cy="84.5" rx="4.8392" ry="4.5" transform="rotate(180 183.09 84.5)" fill="white"/>
<ellipse cx="169.412" cy="84.5" rx="4.8392" ry="4.5" transform="rotate(180 169.412 84.5)" fill="white"/>
<ellipse cx="155.734" cy="84.5" rx="4.8392" ry="4.5" transform="rotate(180 155.734 84.5)" fill="white"/>
<ellipse cx="142.055" cy="84.5" rx="4.8392" ry="4.5" transform="rotate(180 142.055 84.5)" fill="white"/>
<ellipse cx="128.377" cy="84.5" rx="4.8392" ry="4.5" transform="rotate(180 128.377 84.5)" fill="white"/>
<ellipse cx="114.699" cy="84.5" rx="4.8392" ry="4.5" transform="rotate(180 114.699 84.5)" fill="white"/>
<ellipse cx="101.02" cy="84.5" rx="4.8392" ry="4.5" transform="rotate(180 101.02 84.5)" fill="white"/>
<ellipse cx="87.3417" cy="84.5" rx="4.8392" ry="4.5" transform="rotate(180 87.3417 84.5)" fill="white"/>
<ellipse cx="73.6633" cy="84.5" rx="4.8392" ry="4.5" transform="rotate(180 73.6633 84.5)" fill="white"/>
<ellipse cx="265.161" cy="68.5" rx="4.8392" ry="4.5" transform="rotate(180 265.161 68.5)" fill="white"/>
<path d="M246.643 68.5C246.643 66.0147 248.81 64 251.482 64C254.155 64 256.322 66.0147 256.322 68.5C256.322 70.9853 254.155 73 251.482 73C248.81 73 246.643 70.9853 246.643 68.5Z" fill="white"/>
<path d="M232.965 68.5C232.965 66.0147 235.131 64 237.804 64C240.477 64 242.643 66.0147 242.643 68.5C242.643 70.9853 240.477 73 237.804 73C235.131 73 232.965 70.9853 232.965 68.5Z" fill="white"/>
<ellipse cx="224.126" cy="68.5" rx="4.8392" ry="4.5" transform="rotate(180 224.126 68.5)" fill="white"/>
<ellipse cx="210.447" cy="68.5" rx="4.8392" ry="4.5" transform="rotate(180 210.447 68.5)" fill="white"/>
<ellipse cx="196.769" cy="68.5" rx="4.8392" ry="4.5" transform="rotate(180 196.769 68.5)" fill="white"/>
<ellipse cx="183.09" cy="68.5" rx="4.8392" ry="4.5" transform="rotate(180 183.09 68.5)" fill="white"/>
<ellipse cx="169.412" cy="68.5" rx="4.8392" ry="4.5" transform="rotate(180 169.412 68.5)" fill="white"/>
<ellipse cx="155.734" cy="68.5" rx="4.8392" ry="4.5" transform="rotate(180 155.734 68.5)" fill="white"/>
<ellipse cx="142.055" cy="68.5" rx="4.8392" ry="4.5" transform="rotate(180 142.055 68.5)" fill="white"/>
<ellipse cx="128.377" cy="68.5" rx="4.8392" ry="4.5" transform="rotate(180 128.377 68.5)" fill="white"/>
<ellipse cx="114.699" cy="68.5" rx="4.8392" ry="4.5" transform="rotate(180 114.699 68.5)" fill="white"/>
<ellipse cx="101.02" cy="68.5" rx="4.8392" ry="4.5" transform="rotate(180 101.02 68.5)" fill="white"/>
<ellipse cx="87.3417" cy="68.5" rx="4.8392" ry="4.5" transform="rotate(180 87.3417 68.5)" fill="white"/>
<ellipse cx="73.6633" cy="68.5" rx="4.8392" ry="4.5" transform="rotate(180 73.6633 68.5)" fill="white"/>
<ellipse cx="59.9849" cy="68.5" rx="4.8392" ry="4.5" transform="rotate(180 59.9849 68.5)" fill="white"/>
<ellipse cx="265.161" cy="52.5" rx="4.8392" ry="4.5" transform="rotate(180 265.161 52.5)" fill="white"/>
<path d="M246.643 52.5C246.643 50.0147 248.81 48 251.482 48C254.155 48 256.322 50.0147 256.322 52.5C256.322 54.9853 254.155 57 251.482 57C248.81 57 246.643 54.9853 246.643 52.5Z" fill="white"/>
<path d="M232.965 52.5C232.965 50.0147 235.131 48 237.804 48C240.477 48 242.643 50.0147 242.643 52.5C242.643 54.9853 240.477 57 237.804 57C235.131 57 232.965 54.9853 232.965 52.5Z" fill="white"/>
<path d="M219.286 52.5C219.286 50.0147 221.453 48 224.126 48C226.798 48 228.965 50.0147 228.965 52.5C228.965 54.9853 226.798 57 224.126 57C221.453 57 219.286 54.9853 219.286 52.5Z" fill="white"/>
<ellipse cx="210.447" cy="52.5" rx="4.8392" ry="4.5" transform="rotate(180 210.447 52.5)" fill="white"/>
<ellipse cx="196.769" cy="52.5" rx="4.8392" ry="4.5" transform="rotate(180 196.769 52.5)" fill="white"/>
<ellipse cx="183.09" cy="52.5" rx="4.8392" ry="4.5" transform="rotate(180 183.09 52.5)" fill="white"/>
<ellipse cx="169.412" cy="52.5" rx="4.8392" ry="4.5" transform="rotate(180 169.412 52.5)" fill="white"/>
<ellipse cx="155.734" cy="52.5" rx="4.8392" ry="4.5" transform="rotate(180 155.734 52.5)" fill="white"/>
<ellipse cx="142.055" cy="52.5" rx="4.8392" ry="4.5" transform="rotate(180 142.055 52.5)" fill="white"/>
<ellipse cx="128.377" cy="52.5" rx="4.8392" ry="4.5" transform="rotate(180 128.377 52.5)" fill="white"/>
<ellipse cx="114.699" cy="52.5" rx="4.8392" ry="4.5" transform="rotate(180 114.699 52.5)" fill="white"/>
<ellipse cx="101.02" cy="52.5" rx="4.8392" ry="4.5" transform="rotate(180 101.02 52.5)" fill="white"/>
<ellipse cx="87.3417" cy="52.5" rx="4.8392" ry="4.5" transform="rotate(180 87.3417 52.5)" fill="white"/>
<ellipse cx="73.6633" cy="52.5" rx="4.8392" ry="4.5" transform="rotate(180 73.6633 52.5)" fill="white"/>
<ellipse cx="59.9849" cy="52.5" rx="4.8392" ry="4.5" transform="rotate(180 59.9849 52.5)" fill="white"/>
<ellipse cx="46.3066" cy="52.5" rx="4.8392" ry="4.5" transform="rotate(180 46.3066 52.5)" fill="white"/>
<ellipse cx="265.161" cy="36.5" rx="4.8392" ry="4.5" transform="rotate(180 265.161 36.5)" fill="white"/>
<path d="M246.643 36.5C246.643 34.0147 248.81 32 251.482 32C254.155 32 256.322 34.0147 256.322 36.5C256.322 38.9853 254.155 41 251.482 41C248.81 41 246.643 38.9853 246.643 36.5Z" fill="white"/>
<path d="M232.965 36.5C232.965 34.0147 235.131 32 237.804 32C240.477 32 242.643 34.0147 242.643 36.5C242.643 38.9853 240.477 41 237.804 41C235.131 41 232.965 38.9853 232.965 36.5Z" fill="white"/>
<ellipse cx="224.126" cy="36.5" rx="4.8392" ry="4.5" transform="rotate(180 224.126 36.5)" fill="white"/>
<ellipse cx="210.447" cy="36.5" rx="4.8392" ry="4.5" transform="rotate(180 210.447 36.5)" fill="white"/>
<ellipse cx="196.769" cy="36.5" rx="4.8392" ry="4.5" transform="rotate(180 196.769 36.5)" fill="white"/>
<ellipse cx="183.09" cy="36.5" rx="4.8392" ry="4.5" transform="rotate(180 183.09 36.5)" fill="white"/>
<ellipse cx="169.412" cy="36.5" rx="4.8392" ry="4.5" transform="rotate(180 169.412 36.5)" fill="white"/>
<ellipse cx="155.734" cy="36.5" rx="4.8392" ry="4.5" transform="rotate(180 155.734 36.5)" fill="white"/>
<ellipse cx="142.055" cy="36.5" rx="4.8392" ry="4.5" transform="rotate(180 142.055 36.5)" fill="white"/>
<ellipse cx="128.377" cy="36.5" rx="4.8392" ry="4.5" transform="rotate(180 128.377 36.5)" fill="white"/>
<ellipse cx="114.699" cy="36.5" rx="4.8392" ry="4.5" transform="rotate(180 114.699 36.5)" fill="white"/>
<ellipse cx="101.02" cy="36.5" rx="4.8392" ry="4.5" transform="rotate(180 101.02 36.5)" fill="white"/>
<ellipse cx="87.3417" cy="36.5" rx="4.8392" ry="4.5" transform="rotate(180 87.3417 36.5)" fill="white"/>
<ellipse cx="73.6633" cy="36.5" rx="4.8392" ry="4.5" transform="rotate(180 73.6633 36.5)" fill="white"/>
<ellipse cx="59.9849" cy="36.5" rx="4.8392" ry="4.5" transform="rotate(180 59.9849 36.5)" fill="white"/>
<ellipse cx="46.3066" cy="36.5" rx="4.8392" ry="4.5" transform="rotate(180 46.3066 36.5)" fill="white"/>
<ellipse cx="32.6282" cy="36.5" rx="4.8392" ry="4.5" transform="rotate(180 32.6282 36.5)" fill="white"/>
<path d="M260.822 20.5C260.822 18.3245 262.729 16.5 265.161 16.5C267.592 16.5 269.5 18.3245 269.5 20.5C269.5 22.6755 267.592 24.5 265.161 24.5C262.729 24.5 260.822 22.6755 260.822 20.5Z" fill="white" stroke="black"/>
<path d="M246.643 20.5C246.643 18.0147 248.81 16 251.482 16C254.155 16 256.322 18.0147 256.322 20.5C256.322 22.9853 254.155 25 251.482 25C248.81 25 246.643 22.9853 246.643 20.5Z" fill="white"/>
<path d="M232.965 20.5C232.965 18.0147 235.131 16 237.804 16C240.477 16 242.643 18.0147 242.643 20.5C242.643 22.9853 240.477 25 237.804 25C235.131 25 232.965 22.9853 232.965 20.5Z" fill="white"/>
<path d="M219.286 20.5C219.286 18.0147 221.453 16 224.126 16C226.798 16 228.965 18.0147 228.965 20.5C228.965 22.9853 226.798 25 224.126 25C221.453 25 219.286 22.9853 219.286 20.5Z" fill="white"/>
<ellipse cx="210.447" cy="20.5" rx="4.8392" ry="4.5" transform="rotate(180 210.447 20.5)" fill="white"/>
<ellipse cx="196.769" cy="20.5" rx="4.8392" ry="4.5" transform="rotate(180 196.769 20.5)" fill="white"/>
<ellipse cx="183.09" cy="20.5" rx="4.8392" ry="4.5" transform="rotate(180 183.09 20.5)" fill="white"/>
<ellipse cx="169.412" cy="20.5" rx="4.8392" ry="4.5" transform="rotate(180 169.412 20.5)" fill="white"/>
<ellipse cx="155.734" cy="20.5" rx="4.8392" ry="4.5" transform="rotate(180 155.734 20.5)" fill="white"/>
<ellipse cx="142.055" cy="20.5" rx="4.8392" ry="4.5" transform="rotate(180 142.055 20.5)" fill="white"/>
<ellipse cx="128.377" cy="20.5" rx="4.8392" ry="4.5" transform="rotate(180 128.377 20.5)" fill="white"/>
<ellipse cx="114.699" cy="20.5" rx="4.8392" ry="4.5" transform="rotate(180 114.699 20.5)" fill="white"/>
<ellipse cx="101.02" cy="20.5" rx="4.8392" ry="4.5" transform="rotate(180 101.02 20.5)" fill="white"/>
<ellipse cx="87.3417" cy="20.5" rx="4.8392" ry="4.5" transform="rotate(180 87.3417 20.5)" fill="white"/>
<ellipse cx="73.6633" cy="20.5" rx="4.8392" ry="4.5" transform="rotate(180 73.6633 20.5)" fill="white"/>
<ellipse cx="59.9849" cy="20.5" rx="4.8392" ry="4.5" transform="rotate(180 59.9849 20.5)" fill="white"/>
<ellipse cx="46.3066" cy="20.5" rx="4.8392" ry="4.5" transform="rotate(180 46.3066 20.5)" fill="white"/>
<ellipse cx="32.6282" cy="20.5" rx="4.8392" ry="4.5" transform="rotate(180 32.6282 20.5)" fill="white"/>
<ellipse cx="18.9497" cy="20.5" rx="4.8392" ry="4.5" transform="rotate(180 18.9497 20.5)" fill="white"/>
<ellipse cx="265.161" cy="4.5" rx="4.8392" ry="4.5" transform="rotate(180 265.161 4.5)" fill="white"/>
<ellipse cx="251.482" cy="4.5" rx="4.8392" ry="4.5" transform="rotate(180 251.482 4.5)" fill="white"/>
<ellipse cx="237.804" cy="4.5" rx="4.8392" ry="4.5" transform="rotate(180 237.804 4.5)" fill="white"/>
<path d="M219.286 4.5C219.286 2.01472 221.453 0 224.126 0C226.798 0 228.965 2.01472 228.965 4.5C228.965 6.98528 226.798 9 224.126 9C221.453 9 219.286 6.98528 219.286 4.5Z" fill="white"/>
<path d="M205.608 4.5C205.608 2.01472 207.775 0 210.447 0C213.12 0 215.286 2.01472 215.286 4.5C215.286 6.98528 213.12 9 210.447 9C207.775 9 205.608 6.98528 205.608 4.5Z" fill="white"/>
<path d="M191.93 4.5C191.93 2.01472 194.096 0 196.769 0C199.441 0 201.608 2.01472 201.608 4.5C201.608 6.98528 199.441 9 196.769 9C194.096 9 191.93 6.98528 191.93 4.5Z" fill="white"/>
<ellipse cx="183.09" cy="4.5" rx="4.8392" ry="4.5" transform="rotate(180 183.09 4.5)" fill="white"/>
<ellipse cx="169.412" cy="4.5" rx="4.8392" ry="4.5" transform="rotate(180 169.412 4.5)" fill="white"/>
<ellipse cx="155.734" cy="4.5" rx="4.8392" ry="4.5" transform="rotate(180 155.734 4.5)" fill="white"/>
<ellipse cx="142.055" cy="4.5" rx="4.8392" ry="4.5" transform="rotate(180 142.055 4.5)" fill="white"/>
<ellipse cx="128.377" cy="4.5" rx="4.8392" ry="4.5" transform="rotate(180 128.377 4.5)" fill="white"/>
<ellipse cx="114.699" cy="4.5" rx="4.8392" ry="4.5" transform="rotate(180 114.699 4.5)" fill="white"/>
<ellipse cx="101.02" cy="4.5" rx="4.8392" ry="4.5" transform="rotate(180 101.02 4.5)" fill="white"/>
<ellipse cx="87.3417" cy="4.5" rx="4.8392" ry="4.5" transform="rotate(180 87.3417 4.5)" fill="white"/>
<ellipse cx="73.6633" cy="4.5" rx="4.8392" ry="4.5" transform="rotate(180 73.6633 4.5)" fill="white"/>
<ellipse cx="59.9849" cy="4.5" rx="4.8392" ry="4.5" transform="rotate(180 59.9849 4.5)" fill="white"/>
<ellipse cx="46.3066" cy="4.5" rx="4.8392" ry="4.5" transform="rotate(180 46.3066 4.5)" fill="white"/>
<ellipse cx="32.6282" cy="4.5" rx="4.8392" ry="4.5" transform="rotate(180 32.6282 4.5)" fill="white"/>
<ellipse cx="18.9497" cy="4.5" rx="4.8392" ry="4.5" transform="rotate(180 18.9497 4.5)" fill="white"/>
<ellipse cx="5.2714" cy="4.5" rx="4.8392" ry="4.5" transform="rotate(180 5.2714 4.5)" fill="white"/>
</svg>
