<svg width="272" height="89" viewBox="0 0 272 89" fill="none" xmlns="http://www.w3.org/2000/svg">
<ellipse cx="4.8392" cy="4.5" rx="4.8392" ry="4.5" fill="white"/>
<path d="M23.3568 4.5C23.3568 6.98528 21.1902 9 18.5176 9C15.845 9 13.6784 6.98528 13.6784 4.5C13.6784 2.01472 15.845 0 18.5176 0C21.1902 0 23.3568 2.01472 23.3568 4.5Z" fill="white"/>
<ellipse cx="32.196" cy="4.5" rx="4.8392" ry="4.5" fill="white"/>
<ellipse cx="45.8744" cy="4.5" rx="4.8392" ry="4.5" fill="white"/>
<ellipse cx="59.5528" cy="4.5" rx="4.8392" ry="4.5" fill="white"/>
<ellipse cx="73.2312" cy="4.5" rx="4.8392" ry="4.5" fill="white"/>
<ellipse cx="86.9095" cy="4.5" rx="4.8392" ry="4.5" fill="white"/>
<ellipse cx="100.588" cy="4.5" rx="4.8392" ry="4.5" fill="white"/>
<ellipse cx="114.266" cy="4.5" rx="4.8392" ry="4.5" fill="white"/>
<ellipse cx="127.945" cy="4.5" rx="4.8392" ry="4.5" fill="white"/>
<ellipse cx="141.623" cy="4.5" rx="4.8392" ry="4.5" fill="white"/>
<ellipse cx="155.302" cy="4.5" rx="4.8392" ry="4.5" fill="white"/>
<ellipse cx="168.98" cy="4.5" rx="4.8392" ry="4.5" fill="white"/>
<ellipse cx="182.658" cy="4.5" rx="4.8392" ry="4.5" fill="white"/>
<ellipse cx="196.337" cy="4.5" rx="4.8392" ry="4.5" fill="white"/>
<ellipse cx="4.8392" cy="20.5" rx="4.8392" ry="4.5" fill="white"/>
<path d="M23.3568 20.5C23.3568 22.9853 21.1902 25 18.5176 25C15.845 25 13.6784 22.9853 13.6784 20.5C13.6784 18.0147 15.845 16 18.5176 16C21.1902 16 23.3568 18.0147 23.3568 20.5Z" fill="white"/>
<path d="M37.0352 20.5C37.0352 22.9853 34.8686 25 32.196 25C29.5234 25 27.3568 22.9853 27.3568 20.5C27.3568 18.0147 29.5234 16 32.196 16C34.8686 16 37.0352 18.0147 37.0352 20.5Z" fill="white"/>
<ellipse cx="45.8744" cy="20.5" rx="4.8392" ry="4.5" fill="white"/>
<ellipse cx="59.5528" cy="20.5" rx="4.8392" ry="4.5" fill="white"/>
<ellipse cx="73.2312" cy="20.5" rx="4.8392" ry="4.5" fill="white"/>
<ellipse cx="86.9095" cy="20.5" rx="4.8392" ry="4.5" fill="white"/>
<ellipse cx="100.588" cy="20.5" rx="4.8392" ry="4.5" fill="white"/>
<ellipse cx="114.266" cy="20.5" rx="4.8392" ry="4.5" fill="white"/>
<ellipse cx="127.945" cy="20.5" rx="4.8392" ry="4.5" fill="white"/>
<ellipse cx="141.623" cy="20.5" rx="4.8392" ry="4.5" fill="white"/>
<ellipse cx="155.302" cy="20.5" rx="4.8392" ry="4.5" fill="white"/>
<ellipse cx="168.98" cy="20.5" rx="4.8392" ry="4.5" fill="white"/>
<ellipse cx="182.658" cy="20.5" rx="4.8392" ry="4.5" fill="white"/>
<ellipse cx="196.337" cy="20.5" rx="4.8392" ry="4.5" fill="white"/>
<ellipse cx="210.015" cy="20.5" rx="4.8392" ry="4.5" fill="white"/>
<ellipse cx="4.8392" cy="36.5" rx="4.8392" ry="4.5" fill="white"/>
<path d="M23.3568 36.5C23.3568 38.9853 21.1902 41 18.5176 41C15.845 41 13.6784 38.9853 13.6784 36.5C13.6784 34.0147 15.845 32 18.5176 32C21.1902 32 23.3568 34.0147 23.3568 36.5Z" fill="white"/>
<path d="M37.0352 36.5C37.0352 38.9853 34.8686 41 32.196 41C29.5234 41 27.3568 38.9853 27.3568 36.5C27.3568 34.0147 29.5234 32 32.196 32C34.8686 32 37.0352 34.0147 37.0352 36.5Z" fill="white"/>
<path d="M50.7135 36.5C50.7135 38.9853 48.547 41 45.8744 41C43.2017 41 41.0352 38.9853 41.0352 36.5C41.0352 34.0147 43.2017 32 45.8744 32C48.547 32 50.7135 34.0147 50.7135 36.5Z" fill="white"/>
<ellipse cx="59.5528" cy="36.5" rx="4.8392" ry="4.5" fill="white"/>
<ellipse cx="73.2312" cy="36.5" rx="4.8392" ry="4.5" fill="white"/>
<ellipse cx="86.9095" cy="36.5" rx="4.8392" ry="4.5" fill="white"/>
<ellipse cx="100.588" cy="36.5" rx="4.8392" ry="4.5" fill="white"/>
<ellipse cx="114.266" cy="36.5" rx="4.8392" ry="4.5" fill="white"/>
<ellipse cx="127.945" cy="36.5" rx="4.8392" ry="4.5" fill="white"/>
<ellipse cx="141.623" cy="36.5" rx="4.8392" ry="4.5" fill="white"/>
<ellipse cx="155.302" cy="36.5" rx="4.8392" ry="4.5" fill="white"/>
<ellipse cx="168.98" cy="36.5" rx="4.8392" ry="4.5" fill="white"/>
<ellipse cx="182.658" cy="36.5" rx="4.8392" ry="4.5" fill="white"/>
<ellipse cx="196.337" cy="36.5" rx="4.8392" ry="4.5" fill="white"/>
<ellipse cx="210.015" cy="36.5" rx="4.8392" ry="4.5" fill="white"/>
<ellipse cx="223.693" cy="36.5" rx="4.8392" ry="4.5" fill="white"/>
<ellipse cx="4.8392" cy="52.5" rx="4.8392" ry="4.5" fill="white"/>
<path d="M23.3568 52.5C23.3568 54.9853 21.1902 57 18.5176 57C15.845 57 13.6784 54.9853 13.6784 52.5C13.6784 50.0147 15.845 48 18.5176 48C21.1902 48 23.3568 50.0147 23.3568 52.5Z" fill="white"/>
<path d="M37.0352 52.5C37.0352 54.9853 34.8686 57 32.196 57C29.5234 57 27.3568 54.9853 27.3568 52.5C27.3568 50.0147 29.5234 48 32.196 48C34.8686 48 37.0352 50.0147 37.0352 52.5Z" fill="white"/>
<ellipse cx="45.8744" cy="52.5" rx="4.8392" ry="4.5" fill="white"/>
<ellipse cx="59.5528" cy="52.5" rx="4.8392" ry="4.5" fill="white"/>
<ellipse cx="73.2312" cy="52.5" rx="4.8392" ry="4.5" fill="white"/>
<ellipse cx="86.9095" cy="52.5" rx="4.8392" ry="4.5" fill="white"/>
<ellipse cx="100.588" cy="52.5" rx="4.8392" ry="4.5" fill="white"/>
<ellipse cx="114.266" cy="52.5" rx="4.8392" ry="4.5" fill="white"/>
<ellipse cx="127.945" cy="52.5" rx="4.8392" ry="4.5" fill="white"/>
<ellipse cx="141.623" cy="52.5" rx="4.8392" ry="4.5" fill="white"/>
<ellipse cx="155.302" cy="52.5" rx="4.8392" ry="4.5" fill="white"/>
<ellipse cx="168.98" cy="52.5" rx="4.8392" ry="4.5" fill="white"/>
<ellipse cx="182.658" cy="52.5" rx="4.8392" ry="4.5" fill="white"/>
<ellipse cx="196.337" cy="52.5" rx="4.8392" ry="4.5" fill="white"/>
<ellipse cx="210.015" cy="52.5" rx="4.8392" ry="4.5" fill="white"/>
<ellipse cx="223.693" cy="52.5" rx="4.8392" ry="4.5" fill="white"/>
<ellipse cx="237.372" cy="52.5" rx="4.8392" ry="4.5" fill="white"/>
<ellipse cx="6.8392" cy="84.5" rx="4.8392" ry="4.5" fill="white"/>
<ellipse cx="20.5176" cy="84.5" rx="4.8392" ry="4.5" fill="white"/>
<ellipse cx="34.196" cy="84.5" rx="4.8392" ry="4.5" fill="white"/>
<path d="M52.7135 84.5C52.7135 86.9853 50.547 89 47.8744 89C45.2017 89 43.0352 86.9853 43.0352 84.5C43.0352 82.0147 45.2017 80 47.8744 80C50.547 80 52.7135 82.0147 52.7135 84.5Z" fill="white"/>
<path d="M66.392 84.5C66.392 86.9853 64.2254 89 61.5528 89C58.8801 89 56.7136 86.9853 56.7136 84.5C56.7136 82.0147 58.8801 80 61.5528 80C64.2254 80 66.392 82.0147 66.392 84.5Z" fill="white"/>
<path d="M80.0704 84.5C80.0704 86.9853 77.9038 89 75.2312 89C72.5585 89 70.392 86.9853 70.392 84.5C70.392 82.0147 72.5585 80 75.2312 80C77.9038 80 80.0704 82.0147 80.0704 84.5Z" fill="white"/>
<ellipse cx="88.9095" cy="84.5" rx="4.8392" ry="4.5" fill="white"/>
<ellipse cx="102.588" cy="84.5" rx="4.8392" ry="4.5" fill="white"/>
<ellipse cx="116.266" cy="84.5" rx="4.8392" ry="4.5" fill="white"/>
<ellipse cx="129.945" cy="84.5" rx="4.8392" ry="4.5" fill="white"/>
<ellipse cx="143.623" cy="84.5" rx="4.8392" ry="4.5" fill="white"/>
<ellipse cx="157.302" cy="84.5" rx="4.8392" ry="4.5" fill="white"/>
<ellipse cx="170.98" cy="84.5" rx="4.8392" ry="4.5" fill="white"/>
<ellipse cx="184.658" cy="84.5" rx="4.8392" ry="4.5" fill="white"/>
<ellipse cx="198.337" cy="84.5" rx="4.8392" ry="4.5" fill="white"/>
<ellipse cx="212.015" cy="84.5" rx="4.8392" ry="4.5" fill="white"/>
<ellipse cx="225.693" cy="84.5" rx="4.8392" ry="4.5" fill="white"/>
<ellipse cx="239.372" cy="84.5" rx="4.8392" ry="4.5" fill="white"/>
<ellipse cx="253.05" cy="84.5" rx="4.8392" ry="4.5" fill="white"/>
<ellipse cx="266.729" cy="84.5" rx="4.8392" ry="4.5" fill="white"/>
<ellipse cx="6.8392" cy="68.5" rx="4.8392" ry="4.5" fill="white"/>
<path d="M25.3568 68.5C25.3568 70.9853 23.1902 73 20.5176 73C17.845 73 15.6784 70.9853 15.6784 68.5C15.6784 66.0147 17.845 64 20.5176 64C23.1902 64 25.3568 66.0147 25.3568 68.5Z" fill="white"/>
<path d="M39.0352 68.5C39.0352 70.9853 36.8686 73 34.196 73C31.5234 73 29.3568 70.9853 29.3568 68.5C29.3568 66.0147 31.5234 64 34.196 64C36.8686 64 39.0352 66.0147 39.0352 68.5Z" fill="white"/>
<path d="M52.7135 68.5C52.7135 70.9853 50.547 73 47.8744 73C45.2017 73 43.0352 70.9853 43.0352 68.5C43.0352 66.0147 45.2017 64 47.8744 64C50.547 64 52.7135 66.0147 52.7135 68.5Z" fill="white"/>
<ellipse cx="61.5528" cy="68.5" rx="4.8392" ry="4.5" fill="white"/>
<ellipse cx="75.2312" cy="68.5" rx="4.8392" ry="4.5" fill="white"/>
<ellipse cx="88.9095" cy="68.5" rx="4.8392" ry="4.5" fill="white"/>
<ellipse cx="102.588" cy="68.5" rx="4.8392" ry="4.5" fill="white"/>
<ellipse cx="116.266" cy="68.5" rx="4.8392" ry="4.5" fill="white"/>
<ellipse cx="129.945" cy="68.5" rx="4.8392" ry="4.5" fill="white"/>
<ellipse cx="143.623" cy="68.5" rx="4.8392" ry="4.5" fill="white"/>
<ellipse cx="157.302" cy="68.5" rx="4.8392" ry="4.5" fill="white"/>
<ellipse cx="170.98" cy="68.5" rx="4.8392" ry="4.5" fill="white"/>
<ellipse cx="184.658" cy="68.5" rx="4.8392" ry="4.5" fill="white"/>
<ellipse cx="198.337" cy="68.5" rx="4.8392" ry="4.5" fill="white"/>
<ellipse cx="212.015" cy="68.5" rx="4.8392" ry="4.5" fill="white"/>
<ellipse cx="225.693" cy="68.5" rx="4.8392" ry="4.5" fill="white"/>
<ellipse cx="239.372" cy="68.5" rx="4.8392" ry="4.5" fill="white"/>
<ellipse cx="253.05" cy="68.5" rx="4.8392" ry="4.5" fill="white"/>
</svg>
